<svg fill="none" height="64" viewBox="0 0 64 64" width="64" xmlns="http://www.w3.org/2000/svg"><path d="m51 41h-2v20h6c3.314 0 6-2.687 6-6v-8c0-3.313-2.686-6-6-6v-8m-46 0v8c-3.313 0-6 2.687-6 6v8c0 3.313 2.687 6 6 6h6v-20h-2m31.34 15-3.465 2zm0-10-3.465-2zm-1.34 5h-4zm-23.34-5 3.465-2zm0 10 3.465 2zm1.34-5h4zm32 10v-16zm-42 0v-16zm45-32h-2c-1 0-1-1-1-1 0-11.599-9.402-21-21-21s-21 9.401-21 21c0 1-1 1-1 1h-2c-1 0-1-1-1-1 0-13.807 11.193-25 25-25s25 11.193 25 25c0 1-1 1-1 1z" stroke="#12131a" stroke-linecap="round" stroke-linejoin="round" stroke-width="2"/></svg>